<svg xmlns="http://www.w3.org/2000/svg" width="100%" height="100%" viewBox="0 0 1200 400"><defs><linearGradient id="bgGrad" x1="0%" x2="100%" y1="0%" y2="100%"><stop offset="0%" stop-color="#0f172a"/><stop offset="50%" stop-color="#1e1b4b"/><stop offset="100%" stop-color="#311042"/></linearGradient><linearGradient id="accentGrad" x1="0%" x2="100%" y1="0%" y2="0%"><stop offset="0%" stop-color="#6366f1"/><stop offset="50%" stop-color="#a855f7"/><stop offset="100%" stop-color="#ec4899"/></linearGradient><linearGradient id="cardGrad" x1="0%" x2="0%" y1="0%" y2="100%"><stop offset="0%" stop-color="#fff" stop-opacity=".07"/><stop offset="100%" stop-color="#fff" stop-opacity=".02"/></linearGradient><filter id="glow" width="140%" height="140%" x="-20%" y="-20%"><feGaussianBlur result="blur" stdDeviation="8"/><feComposite in="SourceGraphic" in2="blur" operator="over"/></filter><style>@keyframes float{0%{transform:translateY(0)}50%{transform:translateY(-10px)}}@keyframes pulseLine{0%{stroke-dashoffset:400}}.pill-text,.subtitle,.title{font-family:system-ui,-apple-system,sans-serif}.title{font-weight:800;font-size:46px;fill:#fff}.subtitle{font-weight:500;font-size:20px;fill:#94a3b8}.pill-text{font-weight:600;font-size:13px;fill:#e2e8f0}.code-text{font-family:monospace;font-size:13px;fill:#38bdf8}.animated-float{animation:float 6s ease-in-out infinite}.animated-float-delayed{animation:float 7s ease-in-out 2s infinite}.pulse-line{stroke-dasharray:20,10;animation:pulseLine 12s linear infinite}</style></defs><rect width="1200" height="400" fill="url(#bgGrad)" rx="16"/><g stroke="#fff" stroke-width="1" opacity=".08"><path d="M 0,100 L 1200,100 M 0,200 L 1200,200 M 0,300 L 1200,300"/><path d="M 200,0 L 200,400 M 400,0 L 400,400 M 600,0 L 600,400 M 800,0 L 800,400 M 1000,0 L 1000,400"/></g><g fill="none" stroke="url(#accentGrad)" stroke-width="3" class="pulse-line" opacity=".4"><path d="M 100,340 C 300,340 350,320 500,320 C 650,320 700,350 950,350 L 1100,350"/><path d="M 50,50 C 250,50 350,80 600,80 C 850,80 950,50 1150,50"/></g><g class="animated-float" transform="translate(70, 70)"><rect width="180" height="44" fill="url(#cardGrad)" stroke="#6366f1" stroke-width="1.5" rx="22"/><circle cx="26" cy="22" r="8" fill="#10b981"/><text x="44" y="27" class="pill-text">GitOps Sync: Active</text></g><g class="animated-float-delayed" transform="translate(930, 65)"><rect width="200" height="44" fill="url(#cardGrad)" stroke="#a855f7" stroke-width="1.5" rx="22"/><circle cx="26" cy="22" r="8" fill="#3b82f6"/><text x="44" y="27" class="pill-text">Canary: 100% Success</text></g><g class="animated-float" transform="translate(910, 280)"><rect width="220" height="44" fill="url(#cardGrad)" stroke="#ec4899" stroke-width="1.5" rx="22"/><text x="24" y="27" class="code-text">helm upgrade --install</text></g><g class="animated-float-delayed" transform="translate(80, 285)"><rect width="190" height="40" fill="url(#cardGrad)" stroke="#38bdf8" stroke-width="1" rx="10"/><text x="20" y="25" class="pill-text">⚡ Auto-Rollback Ready</text></g><g text-anchor="middle" transform="translate(600, 185)"><text x="0" y="0" class="title" filter="url(#glow)" opacity=".3">Awesome Automated Software Deployment</text><text x="0" y="0" class="title">Awesome Automated Software Deployment 🚀</text><text x="0" y="42" class="subtitle">Curated Commercial CD Platforms &amp; Open-Source GitOps Tools</text><rect width="360" height="4" x="-180" y="68" fill="url(#accentGrad)" rx="2"/></g></svg>